HIERARCHY
ROOT Hips
{
    OFFSET 0.000000 0.000000 0.000000
    CHANNELS 6 Xposition Yposition Zposition Zrotation Xrotation Yrotation
    JOINT Spine
    {
        OFFSET -0.000000 0.081343 0.000000
        CHANNELS 3 Zrotation Xrotation Yrotation
        JOINT Spine1
        {
            OFFSET -0.000000 0.243280 0.000000
            CHANNELS 3 Zrotation Xrotation Yrotation
            JOINT Neck
            {
                OFFSET -0.000000 0.242281 0.022026
                CHANNELS 3 Zrotation Xrotation Yrotation
                JOINT Head
                {
                    OFFSET -0.000000 0.149025 -0.021289
                    CHANNELS 3 Zrotation Xrotation Yrotation
                    End Site
                    {
                        OFFSET -0.000000 0.198396 0.000000
                    }
                }
            }
            JOINT LeftShoulder
            {
                OFFSET 0.039707 0.224479 -0.002125
                CHANNELS 3 Zrotation Xrotation Yrotation
                JOINT LeftArm
                {
                    OFFSET 0.116942 0.000000 0.000000
                    CHANNELS 3 Zrotation Xrotation Yrotation
                    JOINT LeftForeArm
                    {
                        OFFSET 0.282002 0.000000 0.000000
                        CHANNELS 3 Zrotation Xrotation Yrotation
                        JOINT LeftHand
                        {
                            OFFSET 0.358743 0.000000 0.000000
                            CHANNELS 3 Zrotation Xrotation Yrotation
                            End Site
                            {
                                OFFSET 0.148797 0.000000 0.000000
                            }
                        }
                    }
                }
            }
            JOINT RightShoulder
            {
                OFFSET -0.039404 0.224479 -0.002125
                CHANNELS 3 Zrotation Xrotation Yrotation
                JOINT RightArm
                {
                    OFFSET -0.116942 0.000000 0.000000
                    CHANNELS 3 Zrotation Xrotation Yrotation
                    JOINT RightForeArm
                    {
                        OFFSET -0.282002 0.000000 0.000000
                        CHANNELS 3 Zrotation Xrotation Yrotation
                        JOINT RightHand
                        {
                            OFFSET -0.358743 0.000000 0.000000
                            CHANNELS 3 Zrotation Xrotation Yrotation
                            End Site
                            {
                                OFFSET -0.148797 0.000000 0.000000
                            }
                        }
                    }
                }
            }
        }
    }
    JOINT LeftUpLeg
    {
        OFFSET 0.099198 0.000000 0.000000
        CHANNELS 3 Zrotation Xrotation Yrotation
        JOINT LeftLeg
        {
            OFFSET -0.000000 -0.332973 0.000000
            CHANNELS 3 Zrotation Xrotation Yrotation
            JOINT LeftFoot
            {
                OFFSET -0.000000 -0.491254 0.000000
                CHANNELS 3 Zrotation Xrotation Yrotation
                JOINT LeftToeBase
                {
                    OFFSET -0.000000 -0.064479 0.148797
                    CHANNELS 3 Zrotation Xrotation Yrotation
                    End Site
                    {
                        OFFSET -0.000000 0.000000 0.039679
                    }
                }
            }
        }
    }
    JOINT RightUpLeg
    {
        OFFSET -0.099198 0.000000 0.000000
        CHANNELS 3 Zrotation Xrotation Yrotation
        JOINT RightLeg
        {
            OFFSET -0.000000 -0.332973 0.000000
            CHANNELS 3 Zrotation Xrotation Yrotation
            JOINT RightFoot
            {
                OFFSET -0.000000 -0.491254 0.000000
                CHANNELS 3 Zrotation Xrotation Yrotation
                JOINT RightToeBase
                {
                    OFFSET -0.000000 -0.064479 0.148797
                    CHANNELS 3 Zrotation Xrotation Yrotation
                    End Site
                    {
                        OFFSET -0.000000 0.000000 0.039679
                    }
                }
            }
        }
    }
}
MOTION
Frames:    5
Frame Time:    0.010000
-0.149619    0.844905    0.031817    -4.576537    -1.141939    -56.364674    1.707169    2.891319    -9.922799    -6.851162    9.442613    -2.726409    15.465029    12.819989    16.118057    -10.929616    -20.498972    12.847767    -7.077304    22.486862    -9.014046    -14.872015    23.435087    -41.698238    35.235355    11.711699    -61.222687    45.081860    21.827238    -26.439274    4.837236    25.258131    8.114841    51.780903    43.521297    -5.248172    -22.683933    -11.558687    75.207512    8.347338    5.183905    -13.871320    28.860926    -15.792609    17.651510    -21.298023    31.347393    17.455339    1.105216    -9.421889    22.899384    0.000000    0.000000    0.000000    -10.771549    -11.193485    -10.171226    2.410602    39.894985    -3.365847    14.893744    -15.403439    -1.690296    0.000000    0.000000    0.000000    
-0.150104    0.844989    0.031909    -4.592914    -1.096638    -56.430534    1.767579    2.791765    -9.885904    -6.888608    9.515718    -2.706471    15.535172    12.992580    16.315580    -11.239020    -20.545769    12.975858    -7.106473    22.512135    -9.032532    -14.903182    23.434532    -41.714409    35.037014    11.789904    -61.050102    45.114182    21.675777    -26.493423    4.845843    25.244570    8.103422    51.822697    43.529930    -5.346526    -22.648010    -11.616715    75.272621    8.077520    5.157567    -13.760185    28.925747    -15.727081    17.790808    -21.232275    31.367756    17.336123    1.085061    -9.445776    22.902744    0.000000    0.000000    0.000000    -10.664559    -11.171931    -10.073652    2.425977    39.744789    -3.430524    15.050117    -14.956312    -1.744079    0.000000    0.000000    0.000000    
-0.150448    0.845128    0.031938    -4.598614    -1.067444    -56.444031    1.811380    2.730282    -9.892655    -6.915804    9.555078    -2.703970    15.604231    13.162726    16.493711    -11.554741    -20.595953    13.081115    -7.131814    22.545185    -9.055134    -14.945169    23.409454    -41.719257    34.839748    11.877661    -60.893902    45.213520    21.539680    -26.510551    4.844086    25.248049    8.095865    51.831993    43.499580    -5.408906    -22.593079    -11.627291    75.357094    7.723625    5.181924    -13.615916    28.938326    -15.718843    17.846207    -21.149956    31.384909    17.276085    1.044713    -9.421556    22.892767    0.000000    0.000000    0.000000    -10.597161    -11.119587    -10.011304    2.414903    39.667400    -3.447105    14.594686    -15.101507    -1.665079    0.000000    0.000000    0.000000    
-0.150812    0.845301    0.032013    -4.612082    -1.052480    -56.456379    1.858336    2.683061    -9.906154    -6.964824    9.594877    -2.701767    15.660086    13.253711    16.671839    -11.762277    -20.541523    13.219541    -7.145867    22.569239    -9.070265    -14.984883    23.416309    -41.727791    35.317715    12.118706    -60.844067    45.208725    21.843513    -27.002947    4.865287    25.246641    8.090307    52.100311    43.933960    -5.654569    -23.101002    -12.107195    75.105927    7.598546    5.057395    -13.381166    28.932528    -15.693377    17.862728    -21.070719    31.387205    17.213703    0.997510    -9.401579    22.911470    0.000000    0.000000    0.000000    -10.548911    -11.107733    -10.454549    2.029453    39.680233    -2.781214    15.003321    -14.906324    -1.870283    0.000000    0.000000    0.000000    
-0.151180    0.845476    0.032036    -4.629318    -1.032613    -56.468430    1.900321    2.643862    -9.926229    -6.992630    9.630451    -2.703808    15.678153    13.303396    16.815884    -11.914607    -20.443224    13.339304    -7.175179    22.574873    -9.071826    -15.008368    23.483700    -41.684772    35.114845    12.075583    -60.745323    44.859726    21.852297    -26.699411    4.860455    25.250803    8.094921    52.111813    43.893837    -5.724029    -23.079086    -12.093785    75.191475    7.236036    5.134721    -13.214170    28.950699    -15.591019    17.888739    -21.043051    31.290119    16.968033    1.002863    -9.421261    23.112375    0.000000    0.000000    0.000000    -10.481541    -11.034881    -10.281233    2.116699    39.592781    -2.874877    14.534530    -15.068700    -1.877720    0.000000    0.000000    0.000000    
